  <svg
                    width="54"
                    height="37"
                    viewBox="0 0 54 37"
                    fill="none"
                    xmlns="http://www.w3.org/2000/svg"
                  >
                    <path
                      d="M50.3593 0.751312H3.83919C2.18162 0.751312 0.837891 2.09683 0.837891 3.7566V33.8095C0.837891 35.4693 2.18162 36.8148 3.83919 36.8148H50.3593C52.0169 36.8148 53.3606 35.4693 53.3606 33.8095V3.7566C53.3606 2.09683 52.0169 0.751312 50.3593 0.751312Z"
                      fill="#F1F6FF"
                    />
                    <path
                      fill-rule="evenodd"
                      clip-rule="evenodd"
                      d="M25.6436 24.43V19.8905H27.9846C28.945 19.8905 29.7478 19.5689 30.4081 18.9348L30.5732 18.7733C31.7737 17.46 31.6987 15.4134 30.4081 14.1985C29.7704 13.5554 28.8925 13.2067 27.9846 13.2248H24.2255V24.43H25.6436ZM25.6436 18.5148V14.6004H28.0221C28.5323 14.6004 29.0125 14.7973 29.3727 15.1549C30.138 15.9055 30.1605 17.1564 29.4176 17.9333C29.0575 18.318 28.5473 18.5321 28.0221 18.5148H25.6436ZM37.1761 17.3615C36.5683 16.7988 35.7429 16.5126 34.6925 16.5126C33.3494 16.5126 32.3364 17.0129 31.6686 18.0054L32.9217 18.8003C33.3719 18.1211 34.0022 17.7815 34.79 17.7815C35.2927 17.7815 35.7804 17.9694 36.1555 18.309C36.5232 18.6305 36.7333 19.0956 36.7333 19.587V19.9176C36.1931 19.6133 35.5028 19.4525 34.6624 19.4525C33.672 19.4525 32.8842 19.6854 32.2914 20.1587C31.7062 20.6321 31.406 21.2579 31.406 22.0528C31.391 22.7771 31.6986 23.4653 32.2389 23.9296C32.7941 24.43 33.4994 24.6802 34.3248 24.6802C35.3002 24.6802 36.0731 24.2422 36.6658 23.3669H36.7258V24.43H38.0839V19.7027C38.0839 18.7109 37.7838 17.925 37.1761 17.3615ZM33.3344 23.0183C33.0418 22.8034 32.8691 22.4555 32.8691 22.0799C32.8691 21.6599 33.0567 21.3113 33.4394 21.0348C33.822 20.7575 34.3098 20.6148 34.88 20.6148C35.6754 20.6058 36.2906 20.7846 36.7258 21.1415C36.7258 21.7493 36.4932 22.2767 36.0205 22.723C35.6004 23.152 35.0301 23.3932 34.4299 23.3932C34.0322 23.4022 33.6495 23.2684 33.3344 23.0183ZM41.1227 27.7989L45.8573 16.7627H44.3191L42.1282 22.2677H42.0981L39.8547 16.7627H38.3165L41.4228 23.9386L39.6671 27.7989H41.1227Z"
                      fill="#3C4043"
                    />
                    <path
                      d="M20.7515 18.9077C20.7515 18.4697 20.7214 18.0317 20.6464 17.6027H14.6738V20.0783H18.0953C17.9602 20.8732 17.5025 21.5885 16.8347 22.0355V23.6433H18.8757C20.0687 22.5269 20.7515 20.8732 20.7515 18.9077Z"
                      fill="#4285F4"
                    />
                    <path
                      d="M14.6738 25.1986C16.3845 25.1986 17.8252 24.6269 18.8757 23.6441L16.8347 22.0355C16.257 22.4285 15.5292 22.6516 14.6738 22.6516C13.0231 22.6516 11.6275 21.5171 11.1248 19.998H9.02393V21.6599C10.0969 23.8312 12.2878 25.1986 14.6738 25.1986Z"
                      fill="#34A853"
                    />
                    <path
                      d="M11.1248 19.9979C10.8622 19.2022 10.8622 18.336 11.1248 17.5313V15.8784H9.02394C8.11604 17.6921 8.11604 19.8371 9.02394 21.6508L11.1248 19.9979Z"
                      fill="#FBBC04"
                    />
                    <path
                      d="M14.6738 14.8777C15.5817 14.8597 16.4522 15.2083 17.1049 15.8424L18.9131 14.0017C17.7652 12.9115 16.2495 12.3127 14.6738 12.3307C12.2878 12.3307 10.0969 13.7072 9.02393 15.8785L11.1248 17.5404C11.6275 16.0122 13.0231 14.8777 14.6738 14.8777Z"
                      fill="#EA4335"
                    />
                  </svg>