<svg
                    width="53"
                    height="37"
                    viewBox="0 0 53 37"
                    fill="none"
                    xmlns="http://www.w3.org/2000/svg"
                  >
                    <path
                      d="M49.83 0.751312H3.30995C1.65238 0.751312 0.308655 2.09683 0.308655 3.7566V33.8095C0.308655 35.4693 1.65238 36.8148 3.30995 36.8148H49.83C51.4876 36.8148 52.8313 35.4693 52.8313 33.8095V3.7566C52.8313 2.09683 51.4876 0.751312 49.83 0.751312Z"
                      fill="#FFF4EE"
                    />
                    <path
                      fill-rule="evenodd"
                      clip-rule="evenodd"
                      d="M26.9453 26.5322C25.1573 28.077 22.838 29.0101 20.3034 29.0101C14.6475 29.0101 10.063 24.3662 10.063 18.6373C10.063 12.9085 14.6475 8.26459 20.3034 8.26459C22.838 8.26459 25.1573 9.19773 26.9453 10.7425C28.7333 9.19773 31.0526 8.26459 33.5871 8.26459C39.2431 8.26459 43.8276 12.9085 43.8276 18.6373C43.8276 24.3662 39.2431 29.0101 33.5871 29.0101C31.0526 29.0101 28.7333 28.077 26.9453 26.5322Z"
                      fill="#ED0006"
                    />
                    <path
                      fill-rule="evenodd"
                      clip-rule="evenodd"
                      d="M26.9453 26.5322C29.1467 24.6299 30.543 21.7989 30.543 18.6373C30.543 15.4758 29.1467 12.6448 26.9453 10.7425C28.7333 9.19773 31.0525 8.26459 33.5871 8.26459C39.2431 8.26459 43.8275 12.9085 43.8275 18.6373C43.8275 24.3662 39.2431 29.0101 33.5871 29.0101C31.0525 29.0101 28.7333 28.077 26.9453 26.5322Z"
                      fill="#F9A000"
                    />
                    <path
                      fill-rule="evenodd"
                      clip-rule="evenodd"
                      d="M26.9452 10.7424C29.1467 12.6448 30.543 15.4757 30.543 18.6373C30.543 21.7989 29.1467 24.6298 26.9452 26.5322C24.7438 24.6298 23.3474 21.7989 23.3474 18.6373C23.3474 15.4757 24.7438 12.6448 26.9452 10.7424Z"
                      fill="#FF5E00"
                    />
                  </svg>