 <svg
                    width="54"
                    height="37"
                    viewBox="0 0 54 37"
                    fill="none"
                    xmlns="http://www.w3.org/2000/svg"
                  >
                    <path
                      d="M50.3009 0.751312H3.78084C2.12327 0.751312 0.779541 2.09683 0.779541 3.7566V33.8095C0.779541 35.4693 2.12327 36.8148 3.78084 36.8148H50.3009C51.9585 36.8148 53.3022 35.4693 53.3022 33.8095V3.7566C53.3022 2.09683 51.9585 0.751312 50.3009 0.751312Z"
                      fill="#F3FBFF"
                    />
                    <path
                      d="M23.6427 27.4518L23.9646 25.4044L23.248 25.3879H19.8243L22.2035 10.2796C22.2103 10.2345 22.2351 10.1917 22.2696 10.1616C22.3048 10.1316 22.3499 10.1143 22.3964 10.1143H28.1701C30.0865 10.1143 31.4093 10.514 32.1003 11.3021C32.4237 11.6718 32.63 12.0587 32.7298 12.484C32.8341 12.9302 32.8364 13.4629 32.7336 14.1136L32.7268 14.1609V14.5771L33.0502 14.7612C33.3233 14.9055 33.5394 15.0715 33.706 15.2616C33.9829 15.5779 34.1622 15.9791 34.238 16.4562C34.316 16.9461 34.2898 17.5291 34.1622 18.1888C34.0144 18.9483 33.7751 19.6095 33.4532 20.1505C33.156 20.6493 32.7779 21.0626 32.3299 21.3834C31.9015 21.6877 31.392 21.9191 30.8165 22.0671C30.259 22.2121 29.6235 22.2857 28.9257 22.2857H28.4763C28.1551 22.2857 27.843 22.4014 27.5984 22.6095C27.353 22.8214 27.1902 23.1107 27.1399 23.4277L27.1061 23.6118L26.5374 27.2204L26.5119 27.3526C26.5051 27.3947 26.4932 27.4157 26.4759 27.43C26.4609 27.4428 26.4384 27.4518 26.4174 27.4518H23.6427Z"
                      fill="#253B80"
                    />
                    <path
                      d="M33.3555 14.2098C33.3383 14.3202 33.3187 14.4329 33.2962 14.5486C32.5346 18.463 29.9303 19.8154 26.6033 19.8154H24.9091C24.5024 19.8154 24.1595 20.1107 24.0965 20.5126L23.2291 26.0206L22.9838 27.5811C22.9425 27.8448 23.1459 28.0829 23.4115 28.0829H26.4158C26.7714 28.0829 27.0738 27.8245 27.1293 27.4729L27.1593 27.3196L27.7251 23.7253L27.7611 23.5284C27.8166 23.1761 28.119 22.9169 28.4747 22.9169H28.9241C31.8346 22.9169 34.1134 21.7335 34.7796 18.3097C35.058 16.8792 34.914 15.6846 34.1779 14.8446C33.955 14.5915 33.6782 14.3811 33.3555 14.2098Z"
                      fill="#179BD7"
                    />
                    <path
                      d="M32.5573 13.8905C32.441 13.8567 32.3209 13.8258 32.1979 13.798C32.074 13.771 31.9472 13.747 31.8167 13.7259C31.3605 13.6523 30.86 13.617 30.3236 13.617H25.7983C25.6873 13.617 25.5815 13.6425 25.487 13.6876C25.2776 13.7883 25.123 13.9859 25.0855 14.2285L24.1229 20.3338L24.0951 20.5119C24.1581 20.1099 24.501 19.8139 24.9077 19.8139H26.6019C29.9289 19.8139 32.5333 18.4615 33.2949 14.5479C33.3174 14.4314 33.3369 14.3187 33.3541 14.209C33.1613 14.1061 32.9527 14.0189 32.7276 13.9446C32.6728 13.9258 32.615 13.9077 32.5573 13.8905Z"
                      fill="#222D65"
                    />
                    <path
                      d="M25.0878 14.2286C25.1253 13.9866 25.2806 13.789 25.4892 13.6891C25.5845 13.6433 25.6903 13.6177 25.8014 13.6177H30.3266C30.863 13.6177 31.3628 13.653 31.8197 13.7274C31.9503 13.7485 32.0771 13.7725 32.2009 13.7996C32.3239 13.8274 32.444 13.8582 32.5603 13.892C32.618 13.9092 32.675 13.9265 32.7313 13.9446C32.9557 14.0189 33.1643 14.1076 33.3571 14.209C33.5837 12.7627 33.3556 11.7778 32.5745 10.8859C31.7131 9.90396 30.1592 9.48395 28.1708 9.48395H22.3971C21.9904 9.48395 21.6445 9.77998 21.5815 10.1819L19.1767 25.4451C19.1294 25.7471 19.3621 26.0198 19.666 26.0198H23.2307L24.1251 20.3338L25.0878 14.2286Z"
                      fill="#253B80"
                    />
                  </svg>