 <svg
                    width="53"
                    height="37"
                    viewBox="0 0 53 37"
                    fill="none"
                    xmlns="http://www.w3.org/2000/svg"
                  >
                    <path
                      d="M49.7717 0.751312H3.2516C1.59403 0.751312 0.250305 2.09683 0.250305 3.7566V33.8095C0.250305 35.4693 1.59403 36.8148 3.2516 36.8148H49.7717C51.4293 36.8148 52.773 35.4693 52.773 33.8095V3.7566C52.773 2.09683 51.4293 0.751312 49.7717 0.751312Z"
                      fill="#F5F4FF"
                    />
                    <path
                      fill-rule="evenodd"
                      clip-rule="evenodd"
                      d="M28.4708 12.9859L25.8026 13.5591V11.3931L28.4708 10.8303V12.9859ZM17.6286 12.0617L15.0347 12.614L15.0242 21.1189C15.0242 22.6907 16.2037 23.8477 17.7771 23.8477C18.649 23.8477 19.2868 23.6884 19.6372 23.4976V21.3421C19.2973 21.4796 17.618 21.9687 17.618 20.3969V16.6275H19.6372V14.366H17.618L17.6286 12.0617ZM46.0201 19.0483C46.0201 16.33 44.7017 14.1857 42.1829 14.1857C39.6528 14.1857 38.1222 16.33 38.1222 19.0273C38.1222 22.2234 39.9289 23.8372 42.5228 23.8372C43.7879 23.8372 44.7445 23.5502 45.4671 23.1468V21.0235C44.7445 21.3841 43.9154 21.6073 42.8627 21.6073C41.8318 21.6073 40.9179 21.2466 40.8008 19.9934H45.9991C45.9991 19.9348 46.0028 19.8019 46.0073 19.6486C46.0133 19.4405 46.0201 19.1955 46.0201 19.0483ZM40.7693 18.04C40.7693 16.8401 41.5024 16.3413 42.1724 16.3413C42.8207 16.3413 43.5117 16.8401 43.5117 18.04H40.7693ZM11.3461 16.4893C10.7834 16.4893 10.4427 16.6486 10.4427 17.0633C10.4427 17.5148 11.0279 17.7139 11.7542 17.9604C12.9383 18.3631 14.4967 18.8928 14.5034 20.8537C14.5034 22.7538 12.9833 23.8477 10.7721 23.8477C9.85821 23.8477 8.85877 23.6674 7.8706 23.2422V20.7155C8.76348 21.2038 9.89047 21.5652 10.7721 21.5652C11.3679 21.5652 11.7925 21.4059 11.7925 20.9176C11.7925 20.4164 11.1585 20.1873 10.3925 19.9108C9.2257 19.4901 7.75354 18.9596 7.75354 17.1903C7.75354 15.3112 9.18893 14.1857 11.3461 14.1857C12.2285 14.1857 13.1004 14.324 13.9827 14.6741V17.1692C13.1746 16.7335 12.1542 16.4893 11.3461 16.4893ZM22.9431 15.1519L22.7735 14.366H20.4775V23.6569H23.1345V17.3601C23.7617 16.5426 24.8249 16.6914 25.1543 16.8078V14.366C24.8144 14.2383 23.5704 14.0054 22.9431 15.1519ZM25.8026 14.366H28.4708V23.6569H25.8026V14.366ZM31.9357 15.0137C32.3079 14.6741 32.9772 14.1857 34.0194 14.1857C35.8794 14.1857 37.6329 15.8634 37.6442 18.9424C37.6442 22.3083 35.911 23.8372 34.0082 23.8372C33.0733 23.8372 32.5097 23.4443 32.1271 23.1685L32.1165 26.1731L29.4589 26.7358V14.3555H31.7977L31.9357 15.0137ZM32.1271 21.0025C32.3822 21.2782 32.7543 21.5014 33.3816 21.5014C34.3593 21.5014 35.0181 20.4397 35.0181 19.0167C35.0181 17.626 34.3488 16.5426 33.3816 16.5426C32.7754 16.5426 32.3927 16.7552 32.1165 17.0633L32.1271 21.0025Z"
                      fill="#6461FC"
                    />
                  </svg>