 <svg
                    width="54"
                    height="37"
                    viewBox="0 0 54 37"
                    fill="none"
                    xmlns="http://www.w3.org/2000/svg"
                  >
                    <path
                      d="M50.2425 0.751312H3.72243C2.06486 0.751312 0.72113 2.09683 0.72113 3.7566V33.8095C0.72113 35.4693 2.06486 36.8148 3.72243 36.8148H50.2425C51.9001 36.8148 53.2438 35.4693 53.2438 33.8095V3.7566C53.2438 2.09683 51.9001 0.751312 50.2425 0.751312Z"
                      fill="#EBF3FA"
                    />
                    <path
                      d="M23.1918 24.9184H20.222L22.0799 13.4171H25.0496L23.1918 24.9184Z"
                      fill="#00579F"
                    />
                    <path
                      d="M33.9567 13.6989C33.3707 13.466 32.4418 13.209 31.293 13.209C28.36 13.209 26.2951 14.7748 26.2824 17.0137C26.2576 18.6659 27.7605 19.5832 28.8853 20.134C30.034 20.6967 30.4242 21.0641 30.4242 21.566C30.4129 22.3361 29.496 22.6915 28.6414 22.6915C27.4551 22.6915 26.8204 22.5081 25.8547 22.0799L25.4638 21.8958L25.0481 24.4774C25.7444 24.7952 27.0275 25.0769 28.36 25.0897C31.4761 25.0897 33.505 23.548 33.529 21.1618C33.541 19.853 32.7472 18.8499 31.0364 18.0302C29.9972 17.5036 29.3609 17.149 29.3609 16.6103C29.3737 16.1211 29.899 15.6193 31.0717 15.6193C32.0374 15.5952 32.7464 15.8274 33.2837 16.0603L33.5523 16.182L33.9567 13.6989Z"
                      fill="#00579F"
                    />
                    <path
                      d="M37.905 20.844C38.1496 20.1828 39.0905 17.626 39.0905 17.626C39.0785 17.6508 39.3351 16.9529 39.4814 16.5246L39.6892 17.5156C39.6892 17.5156 40.2512 20.2685 40.3735 20.844C39.9091 20.844 38.4917 20.844 37.905 20.844ZM41.571 13.4171H39.2735C38.5652 13.4171 38.0272 13.6253 37.7219 14.3713L33.3107 24.9176H36.4268C36.4268 24.9176 36.9393 23.4984 37.0496 23.1926C37.3917 23.1926 40.4231 23.1926 40.8627 23.1926C40.9483 23.5968 41.2169 24.9176 41.2169 24.9176H43.9668L41.571 13.4171Z"
                      fill="#00579F"
                    />
                    <path
                      d="M17.7415 13.4171L14.8332 21.2594L14.5151 19.6689C13.9778 17.8342 12.2911 15.8402 10.4093 14.8484L13.0737 24.9056H16.2138L20.8816 13.4171H17.7415Z"
                      fill="#00579F"
                    />
                    <path
                      d="M12.1328 13.4171H7.35474L7.30524 13.6501C11.0328 14.6042 13.5014 16.9048 14.5151 19.6696L13.4766 14.3841C13.3056 13.6493 12.7803 13.4419 12.1328 13.4171Z"
                      fill="#FAA61A"
                    />
                  </svg>